inDegrees=yes
name=ik_S42_A09_T01
DataType=double
version=3
OpenSimVersion=4.3-2021-08-27-4bc7ad9
endheader
time	pelvis_tilt	pelvis_list	pelvis_rotation	pelvis_tx	pelvis_ty	pelvis_tz	hip_flexion_r	hip_adduction_r	hip_rotation_r	knee_angle_r	knee_angle_r_beta	ankle_angle_r	subtalar_angle_r	mtp_angle_r	hip_flexion_l	hip_adduction_l	hip_rotation_l	knee_angle_l	knee_angle_l_beta	ankle_angle_l	subtalar_angle_l	mtp_angle_l	lumbar_extension	lumbar_bending	lumbar_rotation	arm_flex_r	arm_add_r	arm_rot_r	elbow_flex_r	pro_sup_r	wrist_flex_r	wrist_dev_r	arm_flex_l	arm_add_l	arm_rot_l	elbow_flex_l	pro_sup_l	wrist_flex_l	wrist_dev_l
23.69999999999958	-11.74763870535398	-2.556958443187582	30.97409869832322	0	0.9399999999999999	0	39.96038461901673	-10.70104954954744	-10.29297783853796	51.05034337250999	0.8909965761239654	0	0	0	39.96038461901673	-10.70104954954744	-10.29297783853796	51.05034337250999	0.8909965761239654	0	0	0	-10.46653863160041	-0.5651491089028697	-4.647314475889847	73.28047268552342	-9.978791338357428	23.32389750328779	60.40556300704312	91.14514169586002	0	0	86.19744723576754	-13.55056184886641	2.603608363530276	14.20030782462032	92.5315543122191	0	0
23.71999999999958	-11.80645914400765	-2.586714475100229	30.84575343468809	0	0.9399999999999999	0	39.96250994880508	-10.70002217827405	-10.29270240856239	51.05145866455916	0.8910160416423448	0	0	0	39.96250994880508	-10.70002217827405	-10.29270240856239	51.05145866455916	0.8910160416423448	0	0	0	-10.5326836410141	-0.5574905454477187	-4.644034709717933	73.42351228887769	-9.961339864600586	23.36233438481173	60.48352168463532	91.14009940914443	0	0	85.97372242067274	-13.73242858985435	3.574383416951911	14.12475553124226	91.85721256185569	0	0
23.73999999999958	-11.84355931702322	-2.612380642416265	30.71527938077615	0	0.9399999999999999	0	39.96417995266749	-10.69921717740492	-10.29248635194303	51.05233665401141	0.8910313654490843	0	0	0	39.96417995266749	-10.69921717740492	-10.29248635194303	51.05233665401141	0.8910313654490843	0	0	0	-10.57957755385606	-0.5501124832612624	-4.681740642079019	73.50703503901475	-9.869734657019748	23.42089735942782	60.56952019445171	91.13776421615827	0	0	85.8750440021598	-13.8663045121741	3.945384127289907	13.27258730560155	92.05179460843044	0	0
23.75999999999958	-11.89306597956656	-2.646292908633951	30.66334623900424	0	0.9399999999999999	0	39.96749350222528	-10.69762493139429	-10.29205846411923	51.05408224537561	0.8910618317657839	0	0	0	39.96749350222528	-10.69762493139429	-10.29205846411923	51.05408224537561	0.8910618317657839	0	0	0	-10.64257942937991	-0.5361623541448138	-4.745059816223947	73.60933975388599	-9.848603691120628	23.50970927149565	60.68780301830081	91.13122726831783	0	0	86.02348154621207	-14.00231064886492	3.838906330823878	11.49328715860899	92.45102757735735	0	0
23.77999999999958	-11.91624209248789	-2.670372668038912	30.55244323469106	0	0.9399999999999999	0	39.96865062929795	-10.69707511512834	-10.29191009836983	51.05469738977981	0.8910725680610124	0	0	0	39.96865062929795	-10.69707511512834	-10.29191009836983	51.05469738977981	0.8910725680610124	0	0	0	-10.67711475987962	-0.531798731911316	-4.801618496130966	73.62684186471321	-9.761513900068088	23.59265111376618	60.83064341897288	91.1366028831963	0	0	86.06527878383288	-14.1948578561044	3.785611666285388	10.91483088529681	92.51833335254388	0	0
23.79999999999958	-11.93994247012971	-2.684403591038382	30.52264805825126	0	0.9399999999999999	0	39.96988842747675	-10.69729832105858	-10.29187865479717	51.05552710936895	0.8910870493997112	0	0	0	39.96988842747675	-10.69729832105858	-10.29187865479717	51.05552710936895	0.8910870493997112	0	0	0	-10.7051843340601	-0.5290464801922709	-4.808257925588835	73.61940274910421	-9.800379772807032	23.62005961296323	60.87372907321829	91.13615005857736	0	0	86.13306585448936	-14.20870215935503	3.787289238542131	10.82610650616344	92.54380073883411	0	0
23.81999999999958	-11.98619118205666	-2.730614334717694	30.40720898818375	0	0.9399999999999999	0	39.97173928804948	-10.69642289327772	-10.29164211866188	51.05651605032698	0.8911043096755366	0	0	0	39.97173928804948	-10.69642289327772	-10.29164211866188	51.05651605032698	0.8911043096755366	0	0	0	-10.77005379533746	-0.5322438469094387	-4.850173659634279	73.70598203510021	-9.732945529449534	23.68516609136564	61.1088623096332	91.04885638568066	0	0	86.28324661511284	-14.41510249218114	3.720751790678992	9.856112314079569	93.71987495585132	0	0
